# xmcd
#
# Track frame offsets:
#	150
#	18512
#	42128
#	59566
#	76677
#	94832
#	108055
#	129720
#	151178
#	170305
#	187189
#
# Disc length: 2693 seconds
#
# Revision: 1
# Processed by: cddbd v1.5.2PL0 Copyright (c) Steve Scherf et al.
# Submitted via: audiograbber 1.83.01
#
DISCID=830a830b
DTITLE=Long John Hunter - Looking For A Party
DYEAR=2008
DGENRE=Blues
TTITLE0=Looking For A Party
TTITLE1=What's Come Over You
TTITLE2=Beggar Man
TTITLE3=Looking For My Baby
TTITLE4=I Know a Man
TTITLE5=Apple of My Eye
TTITLE6=You Say You Want a Caddy
TTITLE7=Greener Pastures
TTITLE8=You Are My World
TTITLE9=It's Hard To Please a Woman
TTITLE10=Me and Phil
EXTD=
EXTT0=
EXTT1=
EXTT2=
EXTT3=
EXTT4=
EXTT5=
EXTT6=
EXTT7=
EXTT8=
EXTT9=
EXTT10=
PLAYORDER=
